<svg width="281" height="259" viewBox="0 0 281 259" fill="none" xmlns="http://www.w3.org/2000/svg">
<g clip-path="url(#clip0_24_601)">
<path d="M0.0200195 217.62C1.54002 200.49 14.03 187.53 30.76 183.58C57.7 177.23 88.99 188.98 117.39 188.45C119.07 188.42 127.89 188.84 128.27 188.45C128.69 188.02 128.95 178.07 128.96 176.55C119.31 175.92 109.03 175.78 99.62 173.28C97.78 172.79 94.12 172.12 94.66 169.49C95.58 165.05 103.06 168.44 106.26 168.9C110.37 169.49 115.6 170.29 119.65 170.5C121.74 170.61 129.08 171.18 129.67 169.27C135.25 119.14 141.25 69.06 147.78 19.06C148.36 14.62 148.21 7.65999 149.43 3.49999C149.95 1.70999 152.43 -0.120009 154.21 1.41999C155.99 2.95999 160.21 20.56 161.22 24.35C167.82 49.1 174.24 75.16 179.67 100.18C182.71 114.18 188.48 134.57 183.4 148.04C177.96 162.43 160.08 172.51 145.58 175.39C143.85 175.73 136.13 176.11 135.8 176.48C135.45 176.87 134.67 186.58 135.04 186.95C135.21 187.12 139.03 187.02 139.92 186.95C185.86 183.35 231.94 171.72 276.5 160.79C278.34 160.49 279.08 162.27 280.53 163.02V164.52C274.41 175.94 265.91 186.61 256.54 195.57C212.97 237.23 165.54 211.11 115.55 199.28C93.51 194.07 63.26 186.84 40.92 188.45C0.720016 191.34 -4.99998 233.76 29.03 250.41C32.96 252.33 40.79 252.97 36.05 258.74H32.3C28.17 256.85 24.29 255.51 20.36 253.07C11.03 247.29 3.24002 236.09 1.14002 225.13C0.75002 223.09 1.31002 220.62 0.0500195 219.11C0.0700195 218.62 0.0100195 218.1 0.0500195 217.61L0.0200195 217.62ZM136.51 169.01C149.69 168.18 168.47 161.69 175.09 149.53C181.71 137.37 177.74 123.85 175.28 111.29C169.92 83.9 162.46 55.63 155.51 28.55C155.22 27.42 155.21 26.2 154.13 25.44L136.51 169.02V169.01ZM267.75 170.51C266.8 169.62 245.63 176.31 242.34 176.58C241.99 182.92 239.46 189.47 236.54 195.1C235.87 196.4 230.6 203.79 231 204.15C231.66 204.75 239.48 200.02 240.69 199.23C249.52 193.45 259.42 183.94 265.38 175.24C265.92 174.45 268.36 171.08 267.75 170.51ZM132.76 195.92C145.17 199.15 157.45 203.4 169.94 206.34C183.78 209.61 201.55 212.53 215.62 210.12C218.74 209.59 227.2 198.27 229.07 195.12C230.69 192.4 236.03 181.74 235.49 179.13C235.43 178.82 234.49 177.79 233.96 178.27C203.21 185.08 172.09 191.57 140.64 194.43C138.14 194.66 134.1 193.35 132.77 195.92H132.76Z" fill="#050606"/>
<path d="M141.64 1.63001C142.41 2.71001 141.84 9.10001 141.68 10.77C137.15 58.01 128 104.95 122.95 152.15C122.51 157.8 114.75 154.84 111.25 153.47C92.95 146.26 99.85 133.71 103.9 119.67C115.02 81.06 126.89 42.68 136.89 3.75001C137.07 1.81001 140.56 0.110011 141.65 1.65001L141.64 1.63001ZM128.27 56.09L105.09 136.55C104.45 142.47 106.72 145.33 112.01 147.45C113.46 148.03 116.92 149.99 117.65 147.58C118.55 144.64 117.94 139.56 119.17 136.39C121.31 110.91 126.64 85.62 129.01 60.2C129.09 59.36 129.6 56.08 128.27 56.09Z" fill="#050606"/>
<path d="M245.25 166.76C245.28 165.46 247.2 165.84 247.89 164.54C250.61 159.43 238.06 154.18 241.86 146.56C243.13 144 242.92 148.24 243.35 149.59C245.48 156.27 252.78 154.91 255.16 149.36L256.49 140.6C259.17 151.37 259.84 166.35 245.25 166.76Z" fill="#050606"/>
<path d="M252.57 144.51C255.91 147.8 250.19 152.61 246.93 149.39C243.67 146.17 249.02 141.02 252.57 144.51Z" fill="#050606"/>
<path d="M49.51 246.78C48.33 249.1 43.12 248.46 40.89 248.27C20.93 246.58 6.22004 222.06 18.13 204.65C28.54 189.44 53.52 192.76 69.15 195.41C87 198.43 105.74 203.45 123.32 207.95C153.44 215.67 186.41 228.42 217.87 224.34C222.31 223.76 247.04 216.63 248.25 217.62C248.82 218.08 241.27 227.9 239.92 229.09C207.49 257.81 138.49 233.65 101.85 223.38C94.57 221.34 79.43 217.15 72.4 218.37C66.77 219.35 66.85 229.89 65.66 234.08C64.18 239.31 61.16 242.41 56.27 244.53C57.54 243.55 61.41 238.96 62.29 237.45C67.16 229.11 64.6 217.28 54.93 214.08C52.13 213.15 47.74 212.13 46.64 215.89C44.67 222.64 55.53 219.68 56.28 226.94C58.13 245.06 29.5 242.08 25.28 225.69C22.28 214.04 30.25 205.24 41.64 204.15C63.93 202.02 105.74 219.29 128.43 226.04C156.86 234.49 206.3 248.73 232.75 230.95C237.2 227.96 235.78 222.87 231.38 222.89C230.06 222.89 221.71 227.4 218.83 228.28C182.33 239.34 127.11 216.09 91.34 205.45C72.82 199.94 36.22 187.27 21.78 205.29C6.33004 224.58 26.41 251.22 49.51 246.78Z" fill="#08D4E5"/>
<path d="M56.26 244.54C54.44 245.94 51.7 246.36 49.51 246.78C26.4 251.22 6.31995 224.58 21.78 205.29C36.22 187.27 72.82 199.94 91.34 205.45C127.11 216.09 182.33 239.34 218.83 228.28C221.71 227.41 230.07 222.9 231.38 222.89C235.79 222.87 237.2 227.96 232.75 230.95C206.3 248.74 156.86 234.49 128.43 226.04C105.74 219.3 63.93 202.02 41.64 204.15C30.25 205.24 22.28 214.04 25.28 225.69C29.5 242.08 58.13 245.06 56.28 226.94C55.54 219.68 44.67 222.64 46.64 215.89C47.74 212.13 52.12 213.15 54.93 214.08C64.6 217.28 67.15 229.11 62.29 237.45C61.41 238.96 57.54 243.55 56.27 244.53L56.26 244.54Z" fill="#050606"/>
<path d="M156 50.85L172.43 134.31C174.64 146.62 162.86 156.81 152.23 160.39C138.4 165.04 143.03 159.71 144.01 149.2C146.18 126 148.73 102.72 151.5 79.64C152.61 70.37 154.05 61.3 154.5 51.96C154.57 50.51 154.43 50.79 156 50.85Z" fill="#08D4E5"/>
</g>
<defs>
<clipPath id="clip0_24_601">
<rect width="280.5" height="258.75" fill="white"/>
</clipPath>
</defs>
</svg>
